<?xml version="1.0" encoding="utf-8"?>
<!-- Generator: Adobe Illustrator 27.5.0, SVG Export Plug-In . SVG Version: 6.00 Build 0)  -->
<svg version="1.1" xmlns="http://www.w3.org/2000/svg" xmlns:xlink="http://www.w3.org/1999/xlink" x="0px" y="0px"
	 viewBox="0 0 500 500" style="enable-background:new 0 0 500 500;" xml:space="preserve">
<g id="Background_Complete">
	<g>
		<rect y="382.398" style="fill:#EBEBEB;" width="500" height="0.25"/>
		<rect x="416.779" y="398.494" style="fill:#EBEBEB;" width="33.122" height="0.25"/>
		<rect x="322.527" y="401.208" style="fill:#EBEBEB;" width="8.693" height="0.25"/>
		<rect x="396.586" y="389.208" style="fill:#EBEBEB;" width="19.192" height="0.25"/>
		<rect x="52.459" y="390.888" style="fill:#EBEBEB;" width="43.193" height="0.25"/>
		<rect x="104.556" y="390.888" style="fill:#EBEBEB;" width="6.333" height="0.25"/>
		<rect x="131.471" y="395.111" style="fill:#EBEBEB;" width="93.676" height="0.25"/>
		<path style="fill:#EBEBEB;" d="M237.014,337.8H43.915c-3.147,0-5.708-2.561-5.708-5.708V60.66c0-3.147,2.561-5.708,5.708-5.708
			h193.099c3.146,0,5.707,2.561,5.707,5.708v271.432C242.721,335.239,240.16,337.8,237.014,337.8z M43.915,55.203
			c-3.01,0-5.458,2.448-5.458,5.458v271.432c0,3.01,2.448,5.458,5.458,5.458h193.099c3.009,0,5.457-2.448,5.457-5.458V60.66
			c0-3.009-2.448-5.458-5.457-5.458H43.915z"/>
		<path style="fill:#EBEBEB;" d="M453.31,337.8H260.212c-3.147,0-5.707-2.561-5.707-5.708V60.66c0-3.147,2.561-5.708,5.707-5.708
			H453.31c3.148,0,5.708,2.561,5.708,5.708v271.432C459.019,335.239,456.458,337.8,453.31,337.8z M260.212,55.203
			c-3.009,0-5.457,2.448-5.457,5.458v271.432c0,3.01,2.448,5.458,5.457,5.458H453.31c3.01,0,5.458-2.448,5.458-5.458V60.66
			c0-3.009-2.448-5.458-5.458-5.458H260.212z"/>
	</g>
	<g>
		<g>
			<path style="fill:#E6E6E6;" d="M395.036,149.039c0,0,1.103-7.271-4.2-11.933s-4.837-7.435-3.322-7.797
				c1.515-0.362,2.914,4.3,5.245,5.582c0,0,0.074-6.643-2.294-9.091c-2.368-2.448-3.61-8.752-1.357-8.863
				c2.253-0.111,2.486,3.745,2.952,6.479c0.466,2.734,2.977,6.58,2.977,6.58s0.49-5.944,2.02-8.392
				c1.53-2.448-2.549-8.042-0.976-10.489c1.573-2.448,4.371,2.215,4.138,7.459c-0.233,5.245-3.729,10.839-2.914,16.317
				c0,0,1.543-3.846,2.928-4.196c1.385-0.35,2.783-2.894,3.716-3.836c0.932-0.942,2.098,2.321,0,5.351
				c-2.098,3.03-7.459,11.137-6.643,17.69L395.036,149.039z"/>
			<path style="fill:#E6E6E6;" d="M391.866,145.731l-1.737,10.897c-0.536,3.366,2.064,6.413,5.472,6.413h1.852
				c3.408,0,6.008-3.047,5.472-6.413l-1.737-10.897H391.866z"/>
			<rect x="295.381" y="159.02" style="fill:#E0E0E0;" width="122.751" height="6.307"/>
			<rect x="301.031" y="135.772" style="fill:#EBEBEB;" width="5.408" height="23.248"/>
			<rect x="327.18" y="135.772" style="fill:#EBEBEB;" width="5.408" height="23.248"/>
			
				<rect x="358.879" y="135.482" transform="matrix(0.9855 -0.1698 0.1698 0.9855 -19.7316 63.5504)" style="fill:#EBEBEB;" width="5.408" height="23.248"/>
			<rect x="307.732" y="138.836" style="fill:#EBEBEB;" width="5.408" height="20.184"/>
			<rect x="320.162" y="138.836" style="fill:#EBEBEB;" width="5.408" height="20.184"/>
			<rect x="351.536" y="138.836" style="fill:#EBEBEB;" width="5.408" height="20.184"/>
			
				<rect x="336.536" y="138.489" transform="matrix(0.9762 -0.2169 0.2169 0.9762 -24.1518 77.121)" style="fill:#EBEBEB;" width="5.408" height="20.184"/>
			<rect x="315.112" y="134.618" style="fill:#EBEBEB;" width="2.704" height="24.402"/>
			<rect x="347.278" y="134.618" style="fill:#EBEBEB;" width="2.704" height="24.402"/>
		</g>
		<g>
			
				<rect x="295.381" y="206.102" transform="matrix(-1 -1.224647e-16 1.224647e-16 -1 713.5125 418.5118)" style="fill:#E0E0E0;" width="122.751" height="6.307"/>
			
				<rect x="407.074" y="182.855" transform="matrix(-1 -1.224647e-16 1.224647e-16 -1 819.5557 388.9571)" style="fill:#EBEBEB;" width="5.408" height="23.248"/>
			
				<rect x="380.925" y="182.855" transform="matrix(-1 -1.224647e-16 1.224647e-16 -1 767.2577 388.9571)" style="fill:#EBEBEB;" width="5.408" height="23.248"/>
			
				<rect x="349.226" y="182.564" transform="matrix(-0.9855 -0.1699 0.1699 -0.9855 665.7629 445.3304)" style="fill:#EBEBEB;" width="5.408" height="23.248"/>
			
				<rect x="400.373" y="185.918" transform="matrix(-1 -1.224647e-16 1.224647e-16 -1 806.1539 392.0207)" style="fill:#EBEBEB;" width="5.408" height="20.184"/>
			
				<rect x="387.943" y="185.918" transform="matrix(-1 -1.224647e-16 1.224647e-16 -1 781.2941 392.0207)" style="fill:#EBEBEB;" width="5.408" height="20.184"/>
			
				<rect x="356.569" y="185.918" transform="matrix(-1 -1.224647e-16 1.224647e-16 -1 718.5451 392.0207)" style="fill:#EBEBEB;" width="5.408" height="20.184"/>
			
				<rect x="371.568" y="185.572" transform="matrix(-0.9762 -0.2169 0.2169 -0.9762 697.1992 467.8451)" style="fill:#EBEBEB;" width="5.408" height="20.184"/>
			
				<rect x="395.697" y="181.7" transform="matrix(-1 -1.224647e-16 1.224647e-16 -1 794.0975 387.8028)" style="fill:#EBEBEB;" width="2.704" height="24.402"/>
			
				<rect x="363.531" y="181.7" transform="matrix(-1 -1.224647e-16 1.224647e-16 -1 729.7659 387.8028)" style="fill:#EBEBEB;" width="2.704" height="24.402"/>
			
				<rect x="307.16" y="187.702" transform="matrix(-1 -1.224647e-16 1.224647e-16 -1 640.6688 393.5963)" style="fill:#EBEBEB;" width="26.35" height="18.191"/>
		</g>
		
			<rect x="80.05" y="118.742" transform="matrix(-1 -1.224647e-16 1.224647e-16 -1 165.281 346.4583)" style="fill:#E0E0E0;" width="5.18" height="108.974"/>
		<g>
			<rect x="80.567" y="118.742" style="fill:#E0E0E0;" width="98.532" height="108.974"/>
			<rect x="80.05" y="118.742" style="fill:#F0F0F0;" width="102.195" height="108.974"/>
			<rect x="84.21" y="122.218" style="fill:#FFFFFF;" width="93.712" height="100.491"/>
			<rect x="175.212" y="122.218" style="fill:#E0E0E0;" width="2.71" height="100.491"/>
			
				<rect x="128.381" y="150.071" transform="matrix(6.123234e-17 -1 1 6.123234e-17 -66.1006 325.573)" style="fill:#E0E0E0;" width="2.71" height="91.532"/>
			<rect x="82.757" y="189.932" style="fill:#F0F0F0;" width="95.166" height="4.549"/>
		</g>
		<g>
			<path style="fill:#E6E6E6;" d="M194.451,266.369h-87.253c-9.464,0-17.136,7.672-17.136,17.136v68.134h121.525v-68.134
				C211.587,274.041,203.915,266.369,194.451,266.369z"/>
			<path style="fill:#E0E0E0;" d="M237.384,316.868H221.77c-5.624,0-10.183,4.559-10.183,10.183v56.346h35.98v-56.346
				C247.567,321.427,243.008,316.868,237.384,316.868z"/>
			<path style="fill:#EBEBEB;" d="M237.384,316.868h-0.33c-5.624,0-10.183,4.559-10.183,10.183v56.346h20.696v-56.346
				C247.567,321.427,243.008,316.868,237.384,316.868z"/>
			<rect x="102.77" y="357.514" style="fill:#E6E6E6;" width="119.743" height="25.883"/>
			<path style="fill:#F5F5F5;" d="M222.683,333.843h-115.48c-5.718,0-10.353,4.635-10.353,10.353v6.449
				c0,5.718,4.635,10.353,10.353,10.353h115.48c5.718,0,10.353-4.635,10.353-10.353v-6.449
				C233.036,338.478,228.401,333.843,222.683,333.843z"/>
			<path style="fill:#E0E0E0;enable-background:new    ;" d="M121.715,333.843h-14.324c-5.718,0-10.353,4.635-10.353,10.353v6.449
				c0,5.718,4.635,10.353,10.353,10.353h14.324c5.718,0,10.353-4.635,10.353-10.353v-6.449
				C132.068,338.478,127.433,333.843,121.715,333.843z"/>
			<path style="fill:#E0E0E0;" d="M105.847,316.868H90.233c-5.624,0-10.183,4.559-10.183,10.183v56.346h35.98v-56.346
				C116.03,321.427,111.471,316.868,105.847,316.868z"/>
			<path style="fill:#F0F0F0;" d="M105.847,316.868h-0.33c-5.624,0-10.183,4.559-10.183,10.183v56.346h20.696v-56.346
				C116.03,321.427,111.471,316.868,105.847,316.868z"/>
		</g>
	</g>
</g>
<g id="Background_Simple" style="display:none;">
	<g style="display:inline;">
		<path style="fill:#407BFF;" d="M293.693,220.698c-67.778-16.998-89.366-160.541-191.298-80.239
			c-72.316,56.97-31.019,192.168,58.765,174.789c54.343-10.519,46-11.358,91.451,13.712c46.06,25.405,97.049,37.673,147.563-9.639
			c26.141-24.484,37.26-83.247,12.798-113.137C382.378,168.803,335.099,231.082,293.693,220.698z"/>
		<path style="opacity:0.9;fill:#FFFFFF;" d="M293.693,220.698c-67.778-16.998-89.366-160.541-191.298-80.239
			c-72.316,56.97-31.019,192.168,58.765,174.789c54.343-10.519,46-11.358,91.451,13.712c46.06,25.405,97.049,37.673,147.563-9.639
			c26.141-24.484,37.26-83.247,12.798-113.137C382.378,168.803,335.099,231.082,293.693,220.698z"/>
	</g>
</g>
<g id="Shadow_1_">
	<ellipse id="_x3C_Path_x3E__359_" style="fill:#F5F5F5;" cx="250" cy="416.238" rx="193.889" ry="11.323"/>
</g>
<g id="Plant">
	<g>
		<path style="fill:#407BFF;" d="M106.342,394.16c0,0,4.75-10.364-0.677-20.581s-7.001-12.624-3.541-14.717s5.047,8.173,5.047,8.173
			s2.916-7.063,0.508-14.454c-2.408-7.392-3.918-19.431-0.629-20.722c3.289-1.291,0.628,15.019,3.481,20.578
			c0,0,2.397-6.189,2.791-12.126c0.394-5.937-0.222-15.417,2.375-17.849s4.261-0.749,1.708,12.353
			c-2.552,13.102-2.533,23.752-2.533,23.752s5.637-17.187,9.42-17.688c3.783-0.501,3.778,5.064,0.54,9.892
			c-3.238,4.827-9.483,13.476-10.507,17.926c0,0,6.187-12.934,11.753-8.97c5.566,3.964-4.844,11.776-9.484,14.599
			c-4.64,2.823-7.862,20.518-7.862,20.518L106.342,394.16z"/>
		<path style="opacity:0.2;enable-background:new    ;" d="M106.342,394.16c0,0,4.75-10.364-0.677-20.581
			s-7.001-12.624-3.541-14.717s5.047,8.173,5.047,8.173s2.916-7.063,0.508-14.454c-2.408-7.392-3.918-19.431-0.629-20.722
			c3.289-1.291,0.628,15.019,3.481,20.578c0,0,2.397-6.189,2.791-12.126c0.394-5.937-0.222-15.417,2.375-17.849
			s4.261-0.749,1.708,12.353c-2.552,13.102-2.533,23.752-2.533,23.752s5.637-17.187,9.42-17.688c3.783-0.501,3.778,5.064,0.54,9.892
			c-3.238,4.827-9.483,13.476-10.507,17.926c0,0,6.187-12.934,11.753-8.97c5.566,3.964-4.844,11.776-9.484,14.599
			c-4.64,2.823-7.862,20.518-7.862,20.518L106.342,394.16z"/>
		<path style="fill:#407BFF;" d="M110.092,398.411c0,0-4.625-10.434,0.924-20.569c5.549-10.135,7.151-12.518,3.717-14.663
			c-3.434-2.145-5.145,8.097-5.145,8.097s-2.831-7.106-0.335-14.461c2.497-7.355,4.151-19.371,0.878-20.711
			c-3.273-1.34-0.808,15.008-3.728,20.525c0,0-2.322-6.224-2.645-12.167s0.407-15.412-2.161-17.883
			c-2.567-2.47-4.251-0.813-1.856,12.326s2.248,23.788,2.248,23.788s-5.43-17.269-9.207-17.827
			c-3.777-0.558-3.839,5.008-0.659,9.883c3.18,4.875,9.321,13.616,10.292,18.081c0,0-6.032-13.025-11.644-9.144
			c-5.613,3.881,4.703,11.847,9.308,14.739c4.606,2.892,7.615,20.633,7.615,20.633L110.092,398.411z"/>
		<g>
			<polygon style="fill:#263238;" points="88.758,390.973 126.969,390.973 123.877,418.316 91.851,418.316 			"/>
		</g>
	</g>
</g>
<g id="Sign">
	<g>
		<polygon style="fill:#263238;" points="360.309,413.22 355.894,413.22 355.894,176.63 351.136,176.63 351.136,413.22 
			346.721,413.22 343.719,418.316 351.136,418.316 355.894,418.316 363.311,418.316 		"/>
		
			<ellipse transform="matrix(0.2298 -0.9732 0.9732 0.2298 102.2758 478.6137)" style="fill:#407BFF;" cx="353.515" cy="174.691" rx="35.643" ry="35.643"/>
		<circle style="opacity:0.8;fill:#FFFFFF;" cx="353.515" cy="174.691" r="31.643"/>
		<g>
			<path style="fill:#407BFF;" d="M357.634,168.382c0-2.257-1.935-3.79-5.039-3.79c-2.983,0-5.16,1.129-6.571,3.105l-3.911-2.54
				c2.258-3.064,5.886-4.918,10.925-4.918c5.926,0,9.877,2.701,9.877,7.337c0,6.571-6.894,7.176-6.894,11.933h-5.12
				C350.902,173.542,357.634,172.413,357.634,168.382z M350.257,185.999c0-1.733,1.33-3.104,3.225-3.104
				c1.854,0,3.185,1.371,3.185,3.104c0,1.733-1.33,3.145-3.185,3.145C351.587,189.144,350.257,187.733,350.257,185.999z"/>
		</g>
		<polygon style="opacity:0.3;fill:#FFFFFF;" points="360.309,413.22 355.894,413.22 355.894,219.657 351.136,216.655 
			351.136,413.22 346.721,413.22 343.719,418.316 351.136,418.316 355.894,418.316 363.311,418.316 		"/>
	</g>
</g>
<g id="Button_1_1_">
	<g>
		<polygon style="fill:#263238;" points="333.782,413.22 270.974,413.22 270.974,276.273 300.761,247.255 333.782,247.255 		"/>
		<polygon style="opacity:0.7;fill:#FFFFFF;" points="333.782,413.22 270.974,413.22 270.974,276.273 300.761,247.255 
			333.782,247.255 		"/>
		<polygon style="opacity:0.2;" points="333.782,413.22 303.995,413.22 303.995,276.273 333.782,247.255 		"/>
		<polygon style="opacity:0.4;fill:#FFFFFF;" points="270.974,276.273 303.995,276.273 333.782,247.255 300.761,247.255 		"/>
		<g>
			
				<ellipse transform="matrix(0.9517 -0.3069 0.3069 0.9517 -65.4966 105.5461)" style="opacity:0.5;" cx="302.834" cy="261.018" rx="13.525" ry="5.314"/>
			<path style="opacity:0.5;" d="M311.297,259.425c-3.118,2.953-9.664,5.347-14.622,5.347c-4.958,0-6.45-2.394-3.333-5.347
				c3.118-2.953,9.664-5.347,14.622-5.347C312.923,254.078,314.415,256.472,311.297,259.425z"/>
			
				<ellipse transform="matrix(0.9517 -0.3069 0.3069 0.9517 -64.1862 104.8846)" style="fill:#407BFF;" cx="301.383" cy="256.52" rx="12.336" ry="4.846"/>
			<path style="opacity:0.1;fill:#FFFFFF;" d="M306.786,255.046c-2.15,2.037-6.665,3.688-10.084,3.688
				c-3.419,0-4.448-1.651-2.298-3.688c2.15-2.037,6.665-3.688,10.084-3.688S308.936,253.01,306.786,255.046z"/>
			<path style="opacity:0.2;" d="M311.399,256.518c-3.476,3.298-10.778,5.967-16.311,5.967c-3.545,0-5.5-1.088-5.534-2.745
				c0.714,1.02,2.491,1.649,5.177,1.649c5.534,0,12.835-2.669,16.32-5.967c1.241-1.173,1.827-2.27,1.819-3.196
				C313.617,253.305,313.184,254.835,311.399,256.518z"/>
		</g>
		<g>
			<polygon style="opacity:0.2;" points="273.523,310.429 272.704,311.247 272.704,279.637 301.622,279.637 300.952,280.89 			"/>
			<polygon style="opacity:0.4;fill:#FFFFFF;" points="301.622,279.637 301.622,311.247 272.704,311.247 273.523,310.429 
				300.952,280.89 			"/>
			<g>
				<rect x="273.523" y="280.89" style="fill:#263238;" width="3.918" height="4.22"/>
				<rect x="277.442" y="280.89" style="fill:#263238;" width="3.918" height="4.22"/>
				<rect x="281.36" y="280.89" style="fill:#263238;" width="3.918" height="4.22"/>
				<rect x="285.278" y="280.89" style="fill:#263238;" width="3.918" height="4.22"/>
				<rect x="289.197" y="280.89" style="fill:#263238;" width="3.918" height="4.22"/>
				<rect x="293.115" y="280.89" style="fill:#263238;" width="3.918" height="4.22"/>
				<rect x="297.034" y="280.89" style="fill:#263238;" width="3.918" height="4.22"/>
				<rect x="273.523" y="285.11" style="fill:#263238;" width="3.918" height="4.22"/>
				<rect x="277.442" y="285.11" style="fill:#263238;" width="3.918" height="4.22"/>
				<rect x="281.36" y="285.11" style="fill:#263238;" width="3.918" height="4.22"/>
				<rect x="285.278" y="285.11" style="fill:#263238;" width="3.918" height="4.22"/>
				<rect x="289.197" y="285.11" style="fill:#263238;" width="3.918" height="4.22"/>
				<rect x="293.115" y="285.11" style="fill:#263238;" width="3.918" height="4.22"/>
				<rect x="297.034" y="285.11" style="fill:#263238;" width="3.918" height="4.22"/>
				<rect x="273.523" y="289.33" style="fill:#263238;" width="3.918" height="4.22"/>
				<rect x="277.442" y="289.33" style="fill:#263238;" width="3.918" height="4.22"/>
				<rect x="281.36" y="289.33" style="fill:#263238;" width="3.918" height="4.22"/>
				<rect x="285.278" y="289.33" style="fill:#263238;" width="3.918" height="4.22"/>
				<rect x="289.197" y="289.33" style="fill:#263238;" width="3.918" height="4.22"/>
				<rect x="293.115" y="289.33" style="fill:#263238;" width="3.918" height="4.22"/>
				<rect x="297.034" y="289.33" style="fill:#263238;" width="3.918" height="4.22"/>
				<rect x="273.523" y="293.549" style="fill:#263238;" width="3.918" height="4.22"/>
				<rect x="277.442" y="293.549" style="fill:#263238;" width="3.918" height="4.22"/>
				<rect x="281.36" y="293.549" style="fill:#263238;" width="3.918" height="4.22"/>
				<rect x="285.278" y="293.549" style="fill:#263238;" width="3.918" height="4.22"/>
				<rect x="289.197" y="293.549" style="fill:#263238;" width="3.918" height="4.22"/>
				<rect x="293.115" y="293.549" style="fill:#263238;" width="3.918" height="4.22"/>
				<rect x="297.034" y="293.549" style="fill:#263238;" width="3.918" height="4.22"/>
				<rect x="273.523" y="297.769" style="fill:#263238;" width="3.918" height="4.22"/>
				<rect x="277.442" y="297.769" style="fill:#263238;" width="3.918" height="4.22"/>
				<rect x="281.36" y="297.769" style="fill:#263238;" width="3.918" height="4.22"/>
				<rect x="285.278" y="297.769" style="fill:#263238;" width="3.918" height="4.22"/>
				<rect x="289.197" y="297.769" style="fill:#263238;" width="3.918" height="4.22"/>
				<rect x="293.115" y="297.769" style="fill:#263238;" width="3.918" height="4.22"/>
				<rect x="297.034" y="297.769" style="fill:#263238;" width="3.918" height="4.22"/>
				<rect x="273.523" y="301.989" style="fill:#263238;" width="3.918" height="4.22"/>
				<rect x="277.442" y="301.989" style="fill:#263238;" width="3.918" height="4.22"/>
				<rect x="281.36" y="301.989" style="fill:#263238;" width="3.918" height="4.22"/>
				<rect x="285.278" y="301.989" style="fill:#263238;" width="3.918" height="4.22"/>
				<rect x="289.197" y="301.989" style="fill:#263238;" width="3.918" height="4.22"/>
				<rect x="293.115" y="301.989" style="fill:#263238;" width="3.918" height="4.22"/>
				<rect x="297.034" y="301.989" style="fill:#263238;" width="3.918" height="4.22"/>
				<rect x="273.523" y="306.209" style="fill:#263238;" width="3.918" height="4.22"/>
				<rect x="277.442" y="306.209" style="fill:#263238;" width="3.918" height="4.22"/>
				<rect x="281.36" y="306.209" style="fill:#263238;" width="3.918" height="4.22"/>
				<rect x="285.278" y="306.209" style="fill:#263238;" width="3.918" height="4.22"/>
				<rect x="289.197" y="306.209" style="fill:#263238;" width="3.918" height="4.22"/>
				<rect x="293.115" y="306.209" style="fill:#263238;" width="3.918" height="4.22"/>
				<rect x="297.034" y="306.209" style="fill:#263238;" width="3.918" height="4.22"/>
			</g>
			<g>
				<rect x="293.115" y="285.11" style="fill:#407BFF;" width="3.918" height="4.22"/>
				<rect x="289.197" y="289.33" style="fill:#407BFF;" width="3.918" height="4.22"/>
				<rect x="285.278" y="293.549" style="fill:#407BFF;" width="3.918" height="4.22"/>
				<rect x="281.36" y="297.769" style="fill:#407BFF;" width="3.918" height="4.22"/>
				<rect x="277.442" y="293.549" style="fill:#407BFF;" width="3.918" height="4.22"/>
			</g>
		</g>
		<polygon style="fill:#407BFF;" points="335.719,408.124 267.717,408.124 264.511,418.316 338.925,418.316 		"/>
		<polygon style="opacity:0.2;" points="301.622,418.316 301.718,408.222 335.719,408.124 338.925,418.316 		"/>
	</g>
</g>
<g id="Button_2">
	<g>
		<polygon style="fill:#263238;" points="403.826,413.22 341.019,413.22 341.019,276.273 370.805,247.255 403.826,247.255 		"/>
		<polygon style="opacity:0.7;fill:#FFFFFF;" points="403.826,413.22 341.019,413.22 341.019,276.273 370.805,247.255 
			403.826,247.255 		"/>
		<polygon style="opacity:0.2;" points="403.826,413.22 374.039,413.22 374.039,276.273 403.826,247.255 		"/>
		<polygon style="opacity:0.4;fill:#FFFFFF;" points="341.019,276.273 374.039,276.273 403.826,247.255 370.805,247.255 		"/>
		<g>
			
				<ellipse transform="matrix(0.9517 -0.3069 0.3069 0.9517 -62.1158 127.0445)" style="opacity:0.5;" cx="372.878" cy="261.018" rx="13.525" ry="5.314"/>
			<path style="opacity:0.5;" d="M381.342,259.425c-3.118,2.953-9.664,5.347-14.622,5.347c-4.958,0-6.45-2.394-3.333-5.347
				c3.118-2.953,9.664-5.347,14.622-5.347C382.967,254.078,384.459,256.472,381.342,259.425z"/>
			
				<ellipse transform="matrix(0.9517 -0.3069 0.3069 0.9517 -60.8054 126.3831)" style="fill:#407BFF;" cx="371.427" cy="256.52" rx="12.336" ry="4.846"/>
			<path style="opacity:0.1;fill:#FFFFFF;" d="M376.83,255.046c-2.15,2.037-6.665,3.688-10.084,3.688
				c-3.419,0-4.448-1.651-2.298-3.688c2.15-2.037,6.665-3.688,10.084-3.688S378.98,253.01,376.83,255.046z"/>
			<path style="opacity:0.2;" d="M381.443,256.518c-3.476,3.298-10.778,5.967-16.312,5.967c-3.544,0-5.499-1.088-5.533-2.745
				c0.714,1.02,2.491,1.649,5.177,1.649c5.533,0,12.835-2.669,16.32-5.967c1.241-1.173,1.827-2.27,1.819-3.196
				C383.661,253.305,383.228,254.835,381.443,256.518z"/>
		</g>
		<g>
			<polygon style="opacity:0.2;" points="343.567,310.429 342.748,311.247 342.748,279.637 371.666,279.637 370.996,280.89 			"/>
			<polygon style="opacity:0.4;fill:#FFFFFF;" points="371.666,279.637 371.666,311.247 342.748,311.247 343.567,310.429 
				370.996,280.89 			"/>
			<g>
				<rect x="343.567" y="280.89" style="fill:#263238;" width="3.918" height="4.22"/>
				<rect x="347.486" y="280.89" style="fill:#263238;" width="3.918" height="4.22"/>
				<rect x="351.404" y="280.89" style="fill:#263238;" width="3.918" height="4.22"/>
				<rect x="355.323" y="280.89" style="fill:#263238;" width="3.918" height="4.22"/>
				<rect x="359.241" y="280.89" style="fill:#263238;" width="3.918" height="4.22"/>
				<rect x="363.159" y="280.89" style="fill:#263238;" width="3.918" height="4.22"/>
				<rect x="367.078" y="280.89" style="fill:#263238;" width="3.918" height="4.22"/>
				<rect x="343.567" y="285.11" style="fill:#263238;" width="3.918" height="4.22"/>
				<rect x="347.486" y="285.11" style="fill:#263238;" width="3.918" height="4.22"/>
				<rect x="351.404" y="285.11" style="fill:#263238;" width="3.918" height="4.22"/>
				<rect x="355.323" y="285.11" style="fill:#263238;" width="3.918" height="4.22"/>
				<rect x="359.241" y="285.11" style="fill:#263238;" width="3.918" height="4.22"/>
				<rect x="363.159" y="285.11" style="fill:#263238;" width="3.918" height="4.22"/>
				<rect x="367.078" y="285.11" style="fill:#263238;" width="3.918" height="4.22"/>
				<rect x="343.567" y="289.33" style="fill:#263238;" width="3.918" height="4.22"/>
				<rect x="347.486" y="289.33" style="fill:#263238;" width="3.918" height="4.22"/>
				<rect x="351.404" y="289.33" style="fill:#263238;" width="3.918" height="4.22"/>
				<rect x="355.323" y="289.33" style="fill:#263238;" width="3.918" height="4.22"/>
				<rect x="359.241" y="289.33" style="fill:#263238;" width="3.918" height="4.22"/>
				<rect x="363.159" y="289.33" style="fill:#263238;" width="3.918" height="4.22"/>
				<rect x="367.078" y="289.33" style="fill:#263238;" width="3.918" height="4.22"/>
				<rect x="343.567" y="293.549" style="fill:#263238;" width="3.918" height="4.22"/>
				<rect x="347.486" y="293.549" style="fill:#263238;" width="3.918" height="4.22"/>
				<rect x="351.404" y="293.549" style="fill:#263238;" width="3.918" height="4.22"/>
				<rect x="355.323" y="293.549" style="fill:#263238;" width="3.918" height="4.22"/>
				<rect x="359.241" y="293.549" style="fill:#263238;" width="3.918" height="4.22"/>
				<rect x="363.159" y="293.549" style="fill:#263238;" width="3.918" height="4.22"/>
				<rect x="367.078" y="293.549" style="fill:#263238;" width="3.918" height="4.22"/>
				<rect x="343.567" y="297.769" style="fill:#263238;" width="3.918" height="4.22"/>
				<rect x="347.486" y="297.769" style="fill:#263238;" width="3.918" height="4.22"/>
				<rect x="351.404" y="297.769" style="fill:#263238;" width="3.918" height="4.22"/>
				<rect x="355.323" y="297.769" style="fill:#263238;" width="3.918" height="4.22"/>
				<rect x="359.241" y="297.769" style="fill:#263238;" width="3.918" height="4.22"/>
				<rect x="363.159" y="297.769" style="fill:#263238;" width="3.918" height="4.22"/>
				<rect x="367.078" y="297.769" style="fill:#263238;" width="3.918" height="4.22"/>
				<rect x="343.567" y="301.989" style="fill:#263238;" width="3.918" height="4.22"/>
				<rect x="347.486" y="301.989" style="fill:#263238;" width="3.918" height="4.22"/>
				<rect x="351.404" y="301.989" style="fill:#263238;" width="3.918" height="4.22"/>
				<rect x="355.323" y="301.989" style="fill:#263238;" width="3.918" height="4.22"/>
				<rect x="359.241" y="301.989" style="fill:#263238;" width="3.918" height="4.22"/>
				<rect x="363.159" y="301.989" style="fill:#263238;" width="3.918" height="4.22"/>
				<rect x="367.078" y="301.989" style="fill:#263238;" width="3.918" height="4.22"/>
				<rect x="343.567" y="306.209" style="fill:#263238;" width="3.918" height="4.22"/>
				<rect x="347.486" y="306.209" style="fill:#263238;" width="3.918" height="4.22"/>
				<rect x="351.404" y="306.209" style="fill:#263238;" width="3.918" height="4.22"/>
				<rect x="355.323" y="306.209" style="fill:#263238;" width="3.918" height="4.22"/>
				<rect x="359.241" y="306.209" style="fill:#263238;" width="3.918" height="4.22"/>
				<rect x="363.159" y="306.209" style="fill:#263238;" width="3.918" height="4.22"/>
				<rect x="367.078" y="306.209" style="fill:#263238;" width="3.918" height="4.22"/>
			</g>
			<rect x="347.486" y="285.11" style="fill:#407BFF;" width="3.918" height="4.22"/>
			<rect x="363.159" y="285.11" style="fill:#407BFF;" width="3.918" height="4.22"/>
			<rect x="351.404" y="289.33" style="fill:#407BFF;" width="3.918" height="4.22"/>
			<rect x="359.241" y="289.33" style="fill:#407BFF;" width="3.918" height="4.22"/>
			<rect x="355.323" y="293.549" style="fill:#407BFF;" width="3.918" height="4.22"/>
			<rect x="351.404" y="297.769" style="fill:#407BFF;" width="3.918" height="4.22"/>
			<rect x="359.241" y="297.769" style="fill:#407BFF;" width="3.918" height="4.22"/>
			<rect x="347.486" y="301.989" style="fill:#407BFF;" width="3.918" height="4.22"/>
			<rect x="363.159" y="301.989" style="fill:#407BFF;" width="3.918" height="4.22"/>
		</g>
		<polygon style="fill:#407BFF;" points="405.763,408.124 337.761,408.124 334.555,418.316 408.969,418.316 		"/>
		<polygon style="opacity:0.2;" points="371.666,418.316 371.762,408.222 405.763,408.124 408.969,418.316 		"/>
	</g>
</g>
<g id="Speech_bubble_2">
	<g>
		<path style="fill:#407BFF;" d="M238.903,157.983H212.81c-4.958,0-8.977-4.019-8.977-8.977v-15.781
			c0-4.958,4.019-8.977,8.977-8.977h26.092c4.958,0,8.977,4.019,8.977,8.977v15.781C247.88,153.964,243.861,157.983,238.903,157.983
			z"/>
		<path style="opacity:0.8;fill:#FFFFFF;" d="M238.903,157.983H212.81c-4.958,0-8.977-4.019-8.977-8.977v-15.781
			c0-4.958,4.019-8.977,8.977-8.977h26.092c4.958,0,8.977,4.019,8.977,8.977v15.781C247.88,153.964,243.861,157.983,238.903,157.983
			z"/>
		<g>
			<path style="fill:#263238;" d="M224.424,136.241v8.396h-0.983l-5.038-6.261v6.261h-1.199v-8.396h0.983l5.037,6.261v-6.261
				H224.424z"/>
			<path style="fill:#263238;" d="M226.265,140.439c0-2.458,1.895-4.294,4.474-4.294c2.555,0,4.449,1.823,4.449,4.294
				c0,2.471-1.895,4.294-4.449,4.294C228.16,144.733,226.265,142.898,226.265,140.439z M233.988,140.439
				c0-1.859-1.391-3.226-3.25-3.226c-1.883,0-3.274,1.367-3.274,3.226s1.392,3.226,3.274,3.226
				C232.597,143.665,233.988,142.298,233.988,140.439z"/>
		</g>
		<polygon style="fill:#407BFF;" points="224.374,156.779 214.331,165.571 218.572,156.779 		"/>
		<polygon style="opacity:0.8;fill:#FFFFFF;" points="224.374,156.779 214.331,165.571 218.572,156.779 		"/>
	</g>
</g>
<g id="Speech_bubble_1">
	<g>
		<path style="fill:#407BFF;" d="M181.855,157.983h-26.092c-4.958,0-8.977-4.019-8.977-8.977v-15.781
			c0-4.958,4.019-8.977,8.977-8.977h26.092c4.958,0,8.977,4.019,8.977,8.977v15.781
			C190.832,153.964,186.813,157.983,181.855,157.983z"/>
		<path style="opacity:0.8;fill:#FFFFFF;" d="M181.855,157.983h-26.092c-4.958,0-8.977-4.019-8.977-8.977v-15.781
			c0-4.958,4.019-8.977,8.977-8.977h26.092c4.958,0,8.977,4.019,8.977,8.977v15.781
			C190.832,153.964,186.813,157.983,181.855,157.983z"/>
		<g>
			<path style="fill:#263238;" d="M161.751,141.734v2.902h-1.188v-2.926l-3.334-5.469h1.283l2.687,4.426l2.699-4.426h1.187
				L161.751,141.734z"/>
			<path style="fill:#263238;" d="M172.249,143.593v1.043h-6.093v-8.396h5.925v1.044h-4.725v2.579h4.21v1.02h-4.21v2.711H172.249z"
				/>
			<path style="fill:#263238;" d="M173.429,143.677l0.444-0.936c0.623,0.564,1.691,0.972,2.77,0.972
				c1.451,0,2.075-0.564,2.075-1.295c0-2.051-5.085-0.755-5.085-3.874c0-1.295,1.007-2.398,3.214-2.398
				c0.984,0,2.003,0.264,2.699,0.744l-0.396,0.959c-0.731-0.468-1.559-0.684-2.303-0.684c-1.427,0-2.039,0.6-2.039,1.331
				c0,2.051,5.085,0.768,5.085,3.85c0,1.283-1.031,2.387-3.25,2.387C175.36,144.733,174.101,144.301,173.429,143.677z"/>
		</g>
		<polygon style="fill:#407BFF;" points="170.292,156.779 180.334,165.571 176.094,156.779 		"/>
		<polygon style="opacity:0.8;fill:#FFFFFF;" points="170.292,156.779 180.334,165.571 176.094,156.779 		"/>
	</g>
</g>
<g id="Character">
	<g>
		<g>
			<path style="fill:#DD8A7D;" d="M207.076,214.355c4.385-1.235,8.964-2.673,13.221-4.288c2.137-0.806,4.216-1.701,6.104-2.666
				c0.94-0.484,1.819-1.002,2.563-1.521c0.731-0.505,1.335-1.062,1.519-1.296c0.104-0.114,0.055-0.069,0.054,0.151
				c0.023,0.046,0.054-0.07,0.035-0.26c-0.031-0.396-0.3-1.162-0.75-1.934c-0.919-1.577-2.348-3.288-3.905-4.89
				c-3.134-3.224-6.826-6.332-10.492-9.231l-0.08-0.063c-1.062-0.839-1.242-2.381-0.402-3.442c0.716-0.906,1.945-1.169,2.949-0.705
				c4.624,2.134,8.923,4.609,13.055,7.822c2.041,1.642,4.061,3.402,5.862,5.854c0.881,1.246,1.78,2.657,2.294,4.634
				c0.247,0.99,0.396,2.101,0.26,3.352c-0.169,1.423-0.688,2.616-1.238,3.522c-1.131,1.815-2.362,2.907-3.548,3.876
				c-1.194,0.941-2.377,1.712-3.556,2.408c-2.355,1.393-4.717,2.479-7.081,3.481c-2.368,0.986-4.741,1.864-7.137,2.639
				c-2.417,0.771-4.751,1.494-7.3,2.107c-2.646,0.636-5.306-0.992-5.942-3.638c-0.621-2.58,0.914-5.175,3.445-5.892L207.076,214.355
				z"/>
		</g>
		<path style="fill:#407BFF;" d="M202.599,211.652c0,0,11.163-0.472,19.04-3.106l3.723,13.494c0,0-16.754,10.414-21.333,6.023
			S202.599,211.652,202.599,211.652z"/>
		<path style="opacity:0.7;fill:#FFFFFF;" d="M225.361,222.04c0,0-7.51,4.67-13.84,6.43c-2.94,0.82-5.61,1.02-7.18-0.16
			c-0.11-0.07-0.21-0.16-0.31-0.25c-4.58-4.39-1.43-16.41-1.43-16.41s11.16-0.47,19.04-3.1L225.361,222.04z"/>
		<polygon style="fill:#407BFF;" points="220.22,208.546 224.308,223.527 226.286,222.604 222.198,207.546 		"/>
		<polygon style="opacity:0.5;fill:#FFFFFF;" points="220.22,208.546 224.308,223.527 226.286,222.604 222.198,207.546 		"/>
		<path style="opacity:0.1;" d="M211.521,228.47c-2.94,0.82-5.61,1.02-7.18-0.16c-0.25-2.81,0.01-6.02,1.1-9.47
			C205.441,218.84,209.291,220.26,211.521,228.47z"/>
		<g>
			<path style="fill:#DD8A7D;" d="M175.376,218.432c-4.415,1.682-9.007,3.596-13.235,5.669c-2.115,1.045-4.169,2.166-5.969,3.356
				c-0.886,0.594-1.714,1.222-2.334,1.806c-0.637,0.548-1.003,1.173-0.967,1.03c-0.012-0.009,0.01-0.061-0.004-0.092
				c0.014-0.026-0.01-0.165-0.003-0.077c0.006,0.089-0.033,0.151-0.004,0.314l0.01,0.213l0.052,0.268
				c0.02,0.172,0.079,0.376,0.136,0.587c0.22,0.842,0.615,1.819,1.086,2.798c0.963,1.966,2.189,4.012,3.527,5.997
				c2.663,3.99,5.693,7.975,8.74,11.813l0.046,0.057c0.841,1.06,0.664,2.602-0.396,3.443c-0.916,0.727-2.191,0.692-3.064-0.013
				c-4.057-3.279-7.777-6.781-11.255-10.758c-1.71-2.011-3.396-4.085-4.87-6.521c-0.738-1.223-1.445-2.518-2.032-4.058
				c-0.146-0.385-0.283-0.778-0.398-1.221l-0.174-0.648l-0.133-0.719c-0.097-0.455-0.128-1.025-0.154-1.563
				c-0.023-0.226,0.01-0.678,0.037-1.018c0.048-0.339,0.096-0.707,0.179-1.016c0.315-1.294,0.843-2.31,1.374-3.135
				c0.538-0.831,1.103-1.512,1.668-2.126c1.139-1.217,2.29-2.156,3.441-3.032c2.299-1.729,4.628-3.101,6.976-4.369
				c4.724-2.514,9.419-4.518,14.451-6.28c2.567-0.899,5.378,0.454,6.277,3.021c0.884,2.523-0.408,5.281-2.889,6.228L175.376,218.432
				z"/>
		</g>
		<g>
			<path style="fill:#E4897B;" d="M219.284,184.869l-3.765-5.548l-4.341,7.29c0,0,4.25,4,6.616,1.954L219.284,184.869z"/>
			<polygon style="fill:#E4897B;" points="210.288,177.634 206.978,183.827 211.177,186.611 215.518,179.321 			"/>
		</g>
		<polygon style="fill:#E4897B;" points="216.534,411.802 210.022,413.646 208.472,403.511 207.637,398.09 214.149,396.246 
			215.259,403.511 		"/>
		<polygon style="fill:#E4897B;" points="179.094,412.334 172.38,413.224 172.316,403.511 172.27,397.475 178.993,396.595 
			179.039,403.511 		"/>
		<polygon style="opacity:0.2;" points="178.993,396.595 179.039,403.511 172.316,403.511 172.27,397.475 		"/>
		<polygon style="opacity:0.2;" points="215.259,403.511 208.472,403.511 207.637,398.09 214.149,396.246 		"/>
		<g>
			<path style="fill:#263238;" d="M216.454,410.786l-7.395-0.199c-0.277-0.008-0.523,0.177-0.593,0.445l-1.553,5.956
				c-0.161,0.617,0.292,1.219,0.931,1.225c2.669,0.027,6.53-0.025,9.883,0.065c3.921,0.106,6.413-0.087,11.011,0.037
				c2.78,0.075,3.652-2.702,2.498-2.987c-5.256-1.296-8.692-1.04-13.169-3.973C217.58,411.037,217.039,410.802,216.454,410.786z"/>
			<path style="fill:#407BFF;" d="M216.986,411.604c-0.007-0.068,0.029-0.132,0.091-0.162c0.313-0.15,3.082-1.458,3.891-0.972
				c0.155,0.092,0.242,0.242,0.249,0.432c0.012,0.319-0.098,0.578-0.329,0.769c-0.766,0.634-2.698,0.317-3.78,0.071
				c-0.007-0.002-0.014-0.004-0.021-0.006C217.032,411.715,216.992,411.664,216.986,411.604z M217.652,411.529
				c1.486,0.288,2.603,0.253,3.033-0.103c0.151-0.125,0.22-0.292,0.212-0.508c-0.003-0.084-0.032-0.135-0.095-0.173
				c-0.017-0.01-0.037-0.019-0.057-0.027C220.24,410.528,218.744,411.048,217.652,411.529z"/>
			<path style="fill:#407BFF;" d="M217.047,411.713c-0.045-0.034-0.068-0.09-0.061-0.147c0.01-0.077,0.258-1.887,1.145-2.569
				c0.271-0.208,0.573-0.292,0.899-0.25c0.439,0.057,0.558,0.282,0.581,0.462c0.096,0.765-1.575,2.179-2.406,2.522
				c-0.039,0.016-0.081,0.016-0.118,0.002C217.073,411.73,217.06,411.723,217.047,411.713z M218.987,409.065
				c-0.242-0.031-0.458,0.029-0.661,0.185c-0.582,0.447-0.863,1.526-0.969,2.054c0.852-0.477,1.994-1.592,1.936-2.052
				c-0.004-0.028-0.013-0.101-0.144-0.151C219.108,409.087,219.055,409.074,218.987,409.065z"/>
		</g>
		<g>
			<path style="fill:#263238;" d="M178.825,410.786l-7.395-0.199c-0.277-0.008-0.523,0.177-0.593,0.445l-1.553,5.956
				c-0.161,0.617,0.292,1.219,0.931,1.225c2.669,0.027,6.53-0.025,9.883,0.065c3.921,0.106,6.413-0.087,11.011,0.037
				c2.78,0.075,3.653-2.702,2.498-2.987c-5.256-1.296-8.692-1.04-13.169-3.973C179.951,411.037,179.41,410.802,178.825,410.786z"/>
			<path style="fill:#407BFF;" d="M179.357,411.604c-0.007-0.068,0.03-0.132,0.091-0.162c0.313-0.15,3.082-1.458,3.891-0.972
				c0.156,0.092,0.242,0.242,0.25,0.432c0.012,0.319-0.098,0.578-0.329,0.769c-0.766,0.634-2.698,0.317-3.781,0.071
				c-0.007-0.002-0.014-0.004-0.021-0.006C179.403,411.715,179.363,411.664,179.357,411.604z M180.023,411.529
				c1.486,0.288,2.603,0.253,3.033-0.103c0.151-0.125,0.22-0.292,0.212-0.508c-0.003-0.084-0.032-0.135-0.095-0.173
				c-0.017-0.01-0.037-0.019-0.057-0.027C182.611,410.528,181.115,411.048,180.023,411.529z"/>
			<path style="fill:#407BFF;" d="M179.418,411.713c-0.045-0.034-0.069-0.09-0.061-0.147c0.01-0.077,0.258-1.887,1.145-2.569
				c0.271-0.208,0.573-0.292,0.9-0.25c0.439,0.057,0.558,0.282,0.581,0.462c0.096,0.765-1.575,2.179-2.406,2.522
				c-0.038,0.016-0.081,0.016-0.118,0.002C179.444,411.73,179.431,411.723,179.418,411.713z M181.358,409.065
				c-0.242-0.031-0.458,0.029-0.661,0.185c-0.582,0.447-0.863,1.526-0.969,2.054c0.852-0.477,1.993-1.592,1.936-2.052
				c-0.003-0.028-0.013-0.101-0.144-0.151C181.479,409.087,181.426,409.074,181.358,409.065z"/>
		</g>
		<path style="fill:#263238;" d="M165.243,264.716c-3.557,15.423,2.547,136.723,2.547,136.723h11.797l5.044-101.09l18.578,101.09
			l12.608-0.918c-8.242-78.308-15.528-125.06-15.528-125.06l0.017-5.908L165.243,264.716z"/>
		<path style="opacity:0.2;fill:#FFFFFF;" d="M215.818,400.521l-12.611,0.917l-14.62-79.577l-3.953-21.508l-5.045,101.085h-11.795
			c0,0-6.109-121.3-2.55-136.718l35.065,4.834l-0.018,5.907C200.29,275.46,207.573,322.21,215.818,400.521z"/>
		<g>
			<path style="fill:#407BFF;" d="M171.598,207.605c0.426,7.554,0.103,15.089-0.561,22.105c-0.489,5.133-1.172,9.985-1.897,14.364
				c-1.696,10.264-3.622,17.957-3.897,20.642c5.138,0.711,24.503,3.384,35.063,4.837c12.786-35.75,7.97-56.559,7.97-56.559
				s-3.656-1.562-8.042-2.752c-0.577-0.16-1.167-0.305-1.769-0.444c-3.893-0.902-10.398-1.653-14.907-2.057
				c-0.948-0.084-1.912-0.145-2.853-0.189C175.915,207.333,171.598,207.605,171.598,207.605z"/>
			<path style="opacity:0.7;fill:#FFFFFF;" d="M200.301,269.55c-10.56-1.45-29.92-4.12-35.06-4.83c0.28-2.69,2.2-10.38,3.9-20.65
				c0.66-3.99,1.29-8.38,1.77-13.02c0.04-0.44,0.09-0.89,0.13-1.34c0.33-3.44,0.57-7.01,0.68-10.64c0.12-3.77,0.09-7.62-0.12-11.47
				c0,0,4.31-0.27,9.1-0.05c0.94,0.05,1.91,0.11,2.86,0.19c4.51,0.4,11.01,1.16,14.9,2.06c0.61,0.14,1.2,0.28,1.77,0.44
				c4.39,1.19,8.04,2.75,8.04,2.75S213.091,233.8,200.301,269.55z"/>
		</g>
		<g>
			<path style="fill:#E4897B;" d="M190.365,191.517c-0.257,4.911-1.496,13.722-5.576,16.057c0,0,8.052,6.348,10.471,6.321
				c1.698-0.018,4.157-2.796,4.157-2.796c-4.934-2.513-3.823-6.359-1.993-9.782L190.365,191.517z"/>
			<path style="opacity:0.2;" d="M193.242,195.515l4.179,5.798c-0.436,0.809-0.827,1.642-1.102,2.477
				c-1.932-0.772-4.135-3.628-3.822-5.77C192.653,196.951,192.949,195.96,193.242,195.515z"/>
		</g>
		<g>
			<path style="fill:#263238;" d="M208.753,182.616c0.579,2.605-0.308,7.777-3.705,5.778
				C201.651,186.394,207.758,178.138,208.753,182.616z"/>
			<path style="fill:#E4897B;" d="M190.183,184.465c-0.952,6.485-1.841,10.235,0.714,14.172c3.843,5.922,12.395,4.576,15.274-1.512
				c2.591-5.479,3.714-15.163-2.042-18.971C198.458,174.403,191.136,177.98,190.183,184.465z"/>
			<path style="fill:#263238;" d="M188.075,175.178c-4.477,1.758-4.519,12.857,0.964,16.63c3.379-2.257,4.952-11.018,4.952-11.018
				L188.075,175.178z"/>
			<path style="fill:#E4897B;" d="M186.59,189.282c0.165,1.756,1.131,3.265,2.268,4.163c1.711,1.35,3.424,0.02,3.667-2.035
				c0.219-1.85-0.408-4.781-2.471-5.329C188.023,185.542,186.402,187.274,186.59,189.282z"/>
			<path style="fill:#263238;" d="M199.557,188.205c-0.11,0.522,0.079,1,0.421,1.068c0.342,0.068,0.708-0.299,0.818-0.82
				c0.11-0.521-0.079-1-0.421-1.068C200.033,187.316,199.667,187.684,199.557,188.205z"/>
			<path style="fill:#263238;" d="M205.474,189.389c-0.11,0.522,0.079,1,0.421,1.068c0.342,0.068,0.709-0.299,0.818-0.82
				c0.11-0.521-0.079-1-0.421-1.068C205.95,188.5,205.583,188.867,205.474,189.389z"/>
			<path style="fill:#DE5753;" d="M203.538,189.272c0,0,0.611,3.141,1.637,4.811c-1.085,0.632-2.576-0.078-2.576-0.078
				L203.538,189.272z"/>
			<path style="fill:#263238;" d="M197.631,193.139c-0.208-0.075-0.43-0.14-0.669-0.191c-0.085-0.018-0.169,0.035-0.188,0.119
				c-0.019,0.085,0.036,0.168,0.119,0.186c2.292,0.497,3,2.318,3.007,2.336c0.03,0.081,0.121,0.12,0.202,0.09
				c0.081-0.031,0.123-0.121,0.093-0.202C200.166,195.405,199.555,193.834,197.631,193.139z"/>
			<path style="fill:#263238;" d="M198.945,185.247c0.103,0.036,0.223,0.016,0.311-0.062c1.056-0.924,2.173-0.632,2.184-0.629
				c0.167,0.046,0.341-0.052,0.388-0.218c0.047-0.166-0.05-0.338-0.216-0.384c-0.059-0.016-1.458-0.383-2.768,0.764
				c-0.131,0.114-0.145,0.312-0.031,0.441C198.85,185.201,198.896,185.23,198.945,185.247z"/>
			<path style="fill:#263238;" d="M208.449,186.534c0.056,0.019,0.119,0.023,0.181,0.007c0.168-0.043,0.271-0.214,0.229-0.381
				c-0.423-1.676-1.788-2.138-1.846-2.166c-0.164-0.054-0.343,0.034-0.399,0.197c-0.056,0.163,0.03,0.339,0.192,0.395
				c0.058,0.017,1.104,0.387,1.444,1.731C208.276,186.422,208.354,186.501,208.449,186.534z"/>
			<path style="fill:#263238;" d="M193.187,180.407c0,0,1.092,2.054,4.022,2.827c0,0-0.615-1.199-0.439-2.112
				c0,0,2.521,2.621,9.323,2.112l-1.302-1.381c0,0,4.991,0.268,6.386-1.446c1.395-1.714,1.395-5.143,1.395-5.143l-1.323,1.366
				c0,0-0.325-1.821,0.598-2.78c0,0-2.624-0.893-4.114,0.491c0,0,0.305-2.505-0.988-3.626c0,0-2.678,2.176-5.513,1.451l1.648-1.121
				c0,0-7.047-2.242-10.776,0v-0.996c0,0-5.312,2.579-3.795,7.458C189.824,182.385,193.187,180.407,193.187,180.407z"/>
		</g>
		<g>
			<g>
				<path style="fill:#407BFF;" d="M195.26,213.895c0,0-1.958,1.782-4.201,3.506c-2.692-1.794-8.937-6.475-8.176-10.016
					c0.521-0.996,3.326-1.328,3.326-1.328S188.718,210.271,195.26,213.895z"/>
			</g>
			<g>
				<path style="fill:#407BFF;" d="M195.26,213.895c0,0,2.032,2.008,3.221,4.393c2.274-1.113,2.007-7.904,1.321-8.734
					c-1.549-1.205-3.517-1.386-3.517-1.386S197.421,211.379,195.26,213.895z"/>
			</g>
			<g style="opacity:0.5;">
				<g>
					<path style="fill:#FFFFFF;" d="M195.26,213.895c0,0-1.958,1.782-4.201,3.506c-2.692-1.794-8.937-6.475-8.176-10.016
						c0.521-0.996,3.326-1.328,3.326-1.328S188.718,210.271,195.26,213.895z"/>
				</g>
				<g>
					<path style="fill:#FFFFFF;" d="M195.26,213.895c0,0,2.032,2.008,3.221,4.393c2.274-1.113,2.007-7.904,1.321-8.734
						c-1.549-1.205-3.517-1.386-3.517-1.386S197.421,211.379,195.26,213.895z"/>
				</g>
			</g>
		</g>
		<g>
			<path style="fill:#E4897B;" d="M167.466,256.392l-0.873,3.975l-6.736-5.159c0,0,2.462-5.291,5.419-4.269l0.933,0.974
				C167.348,253.103,167.819,254.783,167.466,256.392z"/>
			<polygon style="fill:#E4897B;" points="162.362,263.874 156.991,259.351 159.857,255.208 166.593,260.366 			"/>
		</g>
		<path style="opacity:0.2;" d="M188.587,321.861l-3.953-21.508l0.761-11.382C185.395,288.971,190.816,308.709,188.587,321.861z"/>
		<path style="opacity:0.1;" d="M175.321,217.4c0,0-1.02,8.97-4.41,13.65c0.04-0.44,0.09-0.89,0.13-1.34
			c0.33-3.44,0.57-7.01,0.68-10.64C173.011,217.99,174.271,217.34,175.321,217.4z"/>
		<path style="fill:#407BFF;" d="M171.598,207.605c-7.497-0.947-20.411,9.797-20.411,9.797l8.798,11.821l15.729-6.75
			C175.715,222.473,180.734,208.759,171.598,207.605z"/>
		<path style="opacity:0.7;fill:#FFFFFF;" d="M171.598,207.605c-7.497-0.947-20.411,9.797-20.411,9.797l8.798,11.821l15.729-6.75
			C175.715,222.473,180.734,208.759,171.598,207.605z"/>
		<polygon style="fill:#407BFF;" points="150.898,217.137 159.865,229.816 161.788,228.81 152.512,215.658 		"/>
		<polygon style="opacity:0.5;fill:#FFFFFF;" points="150.898,217.137 159.865,229.816 161.788,228.81 152.512,215.658 		"/>
	</g>
</g>
</svg>
